<svg width="30" height="30" viewBox="0 0 30 30" fill="none" xmlns="http://www.w3.org/2000/svg">
<rect width="30" height="30" rx="4" fill="#232D3E"/>
<path d="M11 16H13V23H11V16ZM14 18H16V25H14V18ZM17 16H19V23H17V16Z" fill="#FCFCFC"/>
<path d="M21.944 13.113C21.507 9.67098 18.56 7.00098 15 7.00098C12.244 7.00098 9.85 8.61198 8.757 11.151C6.609 11.793 5 13.82 5 16.001C5 18.758 7.243 21.001 10 21.001V19.001C8.346 19.001 7 17.655 7 16.001C7 14.598 8.199 13.245 9.673 12.986L10.254 12.883L10.446 12.324C11.149 10.274 12.895 9.00098 15 9.00098C17.757 9.00098 20 11.244 20 14.001V15.001H21C22.103 15.001 23 15.898 23 17.001C23 18.104 22.103 19.001 21 19.001H20V21.001H21C23.206 21.001 25 19.207 25 17.001C24.9988 16.1045 24.6971 15.2343 24.1431 14.5295C23.5891 13.8247 22.8148 13.3259 21.944 13.113Z" fill="#FCFCFC"/>
</svg>
